<svg width="32" height="32" viewBox="0 0 32 32" fill="none" xmlns="http://www.w3.org/2000/svg">
<g clip-path="url(#clip0_1562_1371)">
<path d="M5.87109 14.1701C6.10972 13.9375 6.39645 13.76 6.71109 13.6501C7.03001 13.5262 7.36894 13.4618 7.71109 13.4601H9.82109V10.7501H7.73109C7.00057 10.7455 6.27534 10.8742 5.59109 11.1301C4.96616 11.3398 4.39334 11.6808 3.91109 12.1301C3.42834 12.5953 3.04998 13.1577 2.80109 13.7801C2.52356 14.4346 2.38399 15.1393 2.39109 15.8501C2.38151 16.5871 2.52097 17.3184 2.80109 18.0001C3.05647 18.628 3.43374 19.1989 3.91109 19.6801C4.39654 20.1522 4.96645 20.5287 5.59109 20.7901C6.27291 21.0569 6.99894 21.1926 7.73109 21.1901H9.82109V18.4701H7.73109C7.39018 18.4748 7.05129 18.4172 6.73109 18.3001C6.42078 18.186 6.13552 18.0128 5.89109 17.7901C5.64755 17.5721 5.45617 17.3021 5.33109 17.0001C5.20653 16.6814 5.14211 16.3423 5.14109 16.0001C5.14279 15.658 5.20719 15.319 5.33109 15.0001C5.45535 14.6909 5.63878 14.409 5.87109 14.1701Z" fill="white"/>
<path d="M16.0587 19.1205C15.7587 18.7605 15.5087 18.4805 15.3287 18.2805L14.8287 17.7605C15.1889 17.6899 15.5298 17.5433 15.8287 17.3305C16.1143 17.1367 16.359 16.8887 16.5487 16.6005C16.7554 16.2943 16.9107 15.9566 17.0087 15.6005C17.1211 15.2275 17.1784 14.84 17.1788 14.4505C17.1981 13.8133 17.0498 13.1823 16.7487 12.6205C16.4732 12.162 16.097 11.7722 15.6487 11.4805C15.1987 11.1982 14.7003 11.0016 14.1788 10.9005C13.6625 10.7912 13.1365 10.7342 12.6087 10.7305H10.7188V13.4405H12.7987C13.1979 13.4157 13.5944 13.5209 13.9288 13.7405C14.0604 13.8506 14.1637 13.9907 14.2298 14.1491C14.296 14.3075 14.323 14.4794 14.3088 14.6505C14.3151 14.8184 14.279 14.9852 14.2039 15.1355C14.1287 15.2859 14.0169 15.4148 13.8787 15.5105C13.5602 15.7235 13.1816 15.8287 12.7987 15.8105H10.7188V18.4005H12.0487L14.0487 21.1505H17.6988L16.0587 19.1205Z" fill="white"/>
<path d="M27.3616 12.0596C27.2806 11.6453 27.0705 11.2673 26.7616 10.9796C26.5025 10.7571 26.1731 10.6331 25.8316 10.6296C25.5006 10.6187 25.177 10.729 24.9216 10.9396C24.6617 11.1557 24.4562 11.4297 24.3216 11.7396L22.9016 14.6896C22.7116 15.0896 22.5416 15.4496 22.3916 15.7396C22.2416 16.0296 22.1116 16.3096 22.0016 16.5596C21.8916 16.8096 21.7916 17.0196 21.7116 17.2096L21.4916 17.7796C21.4016 17.5896 21.3216 17.4096 21.2416 17.1996C21.1616 16.9896 21.0616 16.7996 20.9516 16.5496L20.5616 15.7396L20.0616 14.6696L18.6416 11.7396C18.4999 11.4283 18.2917 11.1518 18.0316 10.9296C17.9788 10.8823 17.9178 10.845 17.8516 10.8196V15.7696V15.8796L18.1916 16.6296L18.6016 17.5796L19.8016 20.1996C19.8906 20.4197 20.0119 20.6253 20.1616 20.8096C20.2606 20.9489 20.3823 21.0706 20.5216 21.1696C20.635 21.2551 20.7701 21.3071 20.9116 21.3196C21.0661 21.3521 21.2236 21.3689 21.3816 21.3696C21.5362 21.3695 21.6905 21.3527 21.8416 21.3196C21.9865 21.3089 22.1253 21.2569 22.2416 21.1696C22.383 21.0732 22.5051 20.9511 22.6016 20.8096C22.769 20.6308 22.9043 20.4245 23.0016 20.1996L24.1916 17.5896C24.5016 16.9196 24.7416 16.3696 24.9316 15.9196L25.4316 14.7196C25.5016 15.1496 25.5816 15.5796 25.6816 16.0196C25.7816 16.4596 25.9016 17.0196 26.0416 17.5796L26.8716 21.1996H29.6116L27.3616 12.0596Z" fill="white"/>
<path d="M15.9991 31.2091C24.3993 31.2091 31.2091 24.3993 31.2091 15.9991C31.2091 7.59881 24.3993 0.789062 15.9991 0.789062C7.59881 0.789062 0.789062 7.59881 0.789062 15.9991C0.789062 24.3993 7.59881 31.2091 15.9991 31.2091Z" stroke="white" stroke-miterlimit="10"/>
</g>
<defs>
<clipPath id="clip0_1562_1371">
<rect width="32" height="32" fill="white"/>
</clipPath>
</defs>
</svg>
